# xmcd
#
# Track frame offsets:
#	150
#	15295
#	27522
#	46673
#	61634
#	75281
#	89819
#	100894
#	118187
#	132546
#	146964
#	164183
#	181020
#	197249
#	211874
#	226002
#	241928
#	255216
#	271825
#	287289
#	302664
#	320389
#	334041
#
# Disc length: 4654 seconds
#
# Revision: 0
# Processed by: cddbd v1.5.2PL0 Copyright (c) Steve Scherf et al.
# Submitted via: dBpowerAMP V4.0
#
DISCID=32122c17
DTITLE=Various Artist - ERG Nu Country Traxx Vol. 239 CAN
DYEAR=2014
DGENRE=Country
TTITLE0=Kip Moore - Dirt Road
TTITLE1=Jess Moskaluke  - Cheap Wine And Cigarettes
TTITLE2=Dierks Bentley - Drunk On A Plane [Yeah Version]
TTITLE3=Scotty McCreery - Feelin' It
TTITLE4=Brad Paisley - River Bank
TTITLE5=Thompson Square - Testing The Water
TTITLE6=Aaron Pritchett - Hold You Like My Whiskey
TTITLE7=George Strait - I Got A Car [New Radio Edit]
TTITLE8=Blake Shelton ft. Gwen Sebastian - My Eyes
TTITLE9=Josh Thompson - Wanted Me Gone
TTITLE10=Tim McGraw ft. Faith Hill - Meanwhile Back At Mama's
TTITLE11=Danielle Bradbery - Young In America
TTITLE12=Love And Theft - Night That You'll Never Forget
TTITLE13=Jordan McIntosh - That Girl
TTITLE14=Allison Veltz - Bright Side
TTITLE15=Kira Isabella - Quarterback
TTITLE16=Frankie Ballard  - Sunshine And Whiskey
TTITLE17=Ryan Laird - Lovers Long Gone
TTITLE18=Brothers Osborne - Rum
TTITLE19=Dustin Lynch - Where It's At
TTITLE20=Ryan Kinder  - Kiss Me When I Am Down
TTITLE21=Joe Bachman - Lookatchu
TTITLE22=Stacy Burk - Till Your Boots Are Dirty
EXTD=
EXTT0=
EXTT1=
EXTT2=
EXTT3=
EXTT4=
EXTT5=
EXTT6=
EXTT7=
EXTT8=
EXTT9=
EXTT10=
EXTT11=
EXTT12=
EXTT13=
EXTT14=
EXTT15=
EXTT16=
EXTT17=
EXTT18=
EXTT19=
EXTT20=
EXTT21=
EXTT22=
PLAYORDER=
